<?xml version="1.0" encoding="UTF-8" standalone="no"?>
<!DOCTYPE svg PUBLIC "-//W3C//DTD SVG 20010904//EN"
              "http://www.w3.org/TR/2001/REC-SVG-20010904/DTD/svg10.dtd">

<svg xmlns="http://www.w3.org/2000/svg"
     width="5.23333in" height="5.23333in"
     viewBox="0 0 1570 1570">
  <path id="Selection"
        fill="white"
        d="M 761.00,12.21
           C 761.00,12.21 799.00,12.21 799.00,12.21
             799.00,12.21 814.00,13.00 814.00,13.00
             877.36,13.74 953.44,28.15 1014.00,46.98
             1123.18,80.90 1225.18,138.95 1309.00,216.91
             1309.00,216.91 1347.91,255.00 1347.91,255.00
             1429.30,342.36 1488.60,443.00 1524.02,557.00
             1536.85,598.27 1545.11,636.26 1551.27,679.00
             1551.27,679.00 1557.04,736.00 1557.04,736.00
             1557.04,736.00 1558.04,747.00 1558.04,747.00
             1558.04,747.00 1558.04,760.00 1558.04,760.00
             1558.04,760.00 1559.00,772.00 1559.00,772.00
             1559.00,772.00 1559.00,804.00 1559.00,804.00
             1559.00,804.00 1558.04,814.00 1558.04,814.00
             1558.04,814.00 1558.04,827.00 1558.04,827.00
             1558.04,827.00 1557.09,837.00 1557.09,837.00
             1557.09,837.00 1554.16,872.00 1554.16,872.00
             1550.03,910.66 1543.00,949.45 1532.85,987.00
             1513.58,1058.23 1484.76,1127.03 1446.19,1190.00
             1353.21,1341.79 1211.76,1457.61 1044.00,1517.31
             993.89,1535.14 930.87,1550.51 878.00,1556.16
             878.00,1556.16 842.00,1560.00 842.00,1560.00
             842.00,1560.00 834.00,1560.00 834.00,1560.00
             834.00,1560.00 824.00,1561.04 824.00,1561.04
             824.00,1561.04 812.00,1561.04 812.00,1561.04
             812.00,1561.04 800.00,1562.00 800.00,1562.00
             800.00,1562.00 768.00,1562.00 768.00,1562.00
             768.00,1562.00 756.00,1561.04 756.00,1561.04
             756.00,1561.04 744.00,1561.04 744.00,1561.04
             744.00,1561.04 734.00,1560.00 734.00,1560.00
             734.00,1560.00 726.00,1560.00 726.00,1560.00
             726.00,1560.00 690.00,1556.16 690.00,1556.16
             638.52,1550.65 584.08,1537.36 535.00,1521.00
             465.25,1497.75 390.18,1459.44 331.00,1415.88
             260.38,1363.91 201.23,1305.95 150.72,1234.00
             77.10,1129.12 27.83,1003.71 14.16,876.00
             14.16,876.00 10.00,819.00 10.00,819.00
             10.00,819.00 9.00,802.00 9.00,802.00
             9.00,802.00 9.00,772.00 9.00,772.00
             9.00,772.00 9.96,760.00 9.96,760.00
             9.96,760.00 9.96,747.00 9.96,747.00
             9.96,747.00 10.96,736.00 10.96,736.00
             11.90,714.56 14.67,693.25 17.73,672.00
             29.09,593.17 53.60,516.61 88.26,445.00
             102.31,415.97 119.04,387.98 136.66,361.00
             199.31,265.04 283.34,184.63 381.00,124.81
             381.00,124.81 427.00,99.22 427.00,99.22
             465.30,79.01 505.60,61.89 547.00,49.02
             598.07,33.15 640.93,23.84 694.00,17.28
             694.00,17.28 734.00,13.91 734.00,13.91
             734.00,13.91 746.00,13.00 746.00,13.00
             751.29,12.99 755.71,13.17 761.00,12.21 Z
           M 790.00,1016.00
           C 802.91,994.57 822.08,968.89 837.58,949.00
             852.95,929.28 864.98,913.45 888.00,902.26
             900.85,896.01 916.10,894.73 930.00,891.79
             960.57,885.33 993.41,878.19 1023.00,868.33
             1049.09,859.64 1066.15,854.11 1082.48,830.00
             1091.14,817.21 1096.78,802.86 1100.85,788.00
             1104.56,774.44 1107.83,753.00 1108.00,739.00
             1108.09,730.76 1107.03,723.46 1111.48,716.00
             1117.09,706.59 1128.85,701.69 1138.00,695.95
             1153.42,686.28 1168.09,675.49 1182.00,663.73
             1225.36,627.06 1256.68,576.19 1256.00,518.00
             1256.00,518.00 1254.94,509.00 1254.94,509.00
             1254.94,509.00 1254.94,501.00 1254.94,501.00
             1252.20,480.59 1244.57,459.72 1232.57,443.00
             1224.84,432.23 1214.97,422.96 1205.00,414.29
             1205.00,414.29 1162.00,378.00 1162.00,378.00
             1157.03,373.04 1148.71,364.79 1146.64,358.00
             1143.01,346.08 1149.43,333.35 1161.00,329.09
             1176.26,323.48 1200.60,323.97 1217.00,324.00
             1227.36,324.02 1234.41,325.85 1245.00,321.91
             1248.89,320.46 1253.49,317.73 1253.44,313.00
             1253.38,307.70 1247.09,302.68 1243.00,300.13
             1234.90,295.08 1215.80,293.81 1203.00,285.25
             1186.51,274.23 1176.55,260.13 1156.00,254.30
             1151.23,252.94 1142.99,252.00 1138.00,252.00
             1099.03,252.00 1085.62,290.00 1086.00,323.00
             1086.32,350.13 1100.26,379.17 1118.17,399.00
             1129.92,412.01 1146.56,425.30 1160.00,436.87
             1172.31,447.46 1179.32,453.44 1190.13,466.00
             1204.11,482.24 1210.25,491.98 1210.00,514.00
             1209.88,524.60 1206.30,541.04 1202.58,551.00
             1199.95,558.01 1195.11,570.31 1190.47,575.91
             1188.66,578.10 1185.22,580.98 1183.00,582.95
             1162.08,601.46 1140.81,604.04 1114.00,604.00
             1083.25,603.95 1037.06,583.03 1007.00,573.00
             1007.00,573.00 966.00,559.00 966.00,559.00
             950.76,553.97 924.77,547.02 909.00,547.00
             909.00,547.00 873.00,547.00 873.00,547.00
             873.00,547.00 842.00,549.84 842.00,549.84
             802.52,554.06 762.70,565.67 726.00,580.60
             726.00,580.60 676.00,604.31 676.00,604.31
             676.00,604.31 637.00,625.14 637.00,625.14
             622.32,631.63 604.68,636.51 589.00,640.11
             559.14,646.98 527.43,648.01 497.00,650.09
             497.00,650.09 455.00,653.83 455.00,653.83
             429.01,656.43 391.85,663.30 369.00,675.86
             360.61,680.48 350.79,687.29 344.04,694.04
             325.54,712.55 311.71,744.69 312.00,771.00
             312.06,775.86 313.04,782.57 315.03,787.00
             322.82,804.32 348.76,820.15 365.00,829.58
             370.61,832.83 392.16,845.32 397.00,846.47
             399.79,847.13 404.06,847.03 407.00,847.00
             425.25,846.78 443.07,830.45 460.00,822.26
             482.11,811.56 499.94,809.72 524.00,810.00
             545.59,810.26 551.01,819.34 568.00,828.70
             585.73,838.45 604.60,846.44 624.00,852.28
             624.00,852.28 659.00,862.58 659.00,862.58
             659.00,862.58 679.00,868.34 679.00,868.34
             683.83,870.01 695.07,873.82 695.14,880.00
             695.18,883.23 690.99,887.71 688.93,890.00
             688.93,890.00 670.00,909.00 670.00,909.00
             670.00,909.00 632.00,942.42 632.00,942.42
             632.00,942.42 598.00,970.08 598.00,970.08
             598.00,970.08 579.00,980.91 579.00,980.91
             569.72,987.56 562.74,996.41 558.45,1007.00
             553.34,1019.62 554.24,1026.98 545.91,1040.00
             545.91,1040.00 527.72,1066.00 527.72,1066.00
             527.72,1066.00 485.02,1127.00 485.02,1127.00
             485.02,1127.00 454.42,1171.00 454.42,1171.00
             454.42,1171.00 440.82,1190.00 440.82,1190.00
             434.85,1196.79 429.68,1201.21 421.00,1203.97
             403.68,1209.48 375.32,1206.00 375.00,1232.00
             374.80,1249.16 380.46,1256.02 378.33,1266.00
             376.56,1274.34 373.65,1277.86 370.44,1285.00
             365.36,1296.27 361.15,1308.52 361.00,1321.00
             361.00,1321.00 361.00,1330.00 361.00,1330.00
             361.02,1340.86 363.01,1356.60 378.00,1352.95
             380.20,1352.42 381.78,1351.81 383.56,1350.35
             388.48,1346.32 391.31,1338.70 393.86,1333.00
             396.46,1327.18 399.57,1322.11 403.38,1317.00
             403.38,1317.00 433.70,1282.00 433.70,1282.00
             433.70,1282.00 458.63,1249.00 458.63,1249.00
             458.63,1249.00 545.85,1130.00 545.85,1130.00
             545.85,1130.00 591.17,1069.00 591.17,1069.00
             595.25,1064.47 600.77,1059.07 606.00,1055.93
             615.62,1050.15 622.15,1050.00 631.83,1039.91
             636.17,1035.39 640.19,1028.82 642.55,1023.00
             644.81,1017.40 644.81,1012.93 649.21,1008.42
             649.21,1008.42 700.00,967.63 700.00,967.63
             700.00,967.63 731.00,944.31 731.00,944.31
             748.77,934.47 768.19,927.52 787.00,920.00
             787.00,920.00 750.43,979.00 750.43,979.00
             750.43,979.00 730.00,1018.00 730.00,1018.00
             726.96,1025.04 724.64,1029.29 722.75,1037.00
             718.80,1053.09 719.28,1073.32 734.00,1083.83
             737.32,1086.20 740.06,1087.29 744.00,1088.39
             747.91,1089.20 753.04,1089.25 757.00,1088.39
             770.78,1086.05 784.19,1075.39 798.00,1070.23
             798.00,1070.23 828.00,1060.66 828.00,1060.66
             828.00,1060.66 910.00,1034.98 910.00,1034.98
             910.00,1034.98 943.00,1024.67 943.00,1024.67
             947.43,1023.23 959.98,1019.22 964.00,1019.13
             974.92,1018.88 974.45,1027.39 977.46,1035.00
             979.34,1039.74 981.98,1043.42 986.00,1046.61
             997.83,1055.99 1010.64,1050.72 1023.00,1055.10
             1033.63,1058.87 1038.77,1069.26 1053.00,1070.66
             1067.86,1072.13 1070.15,1057.53 1064.67,1047.00
             1064.67,1047.00 1034.34,1000.00 1034.34,1000.00
             1028.87,991.61 1020.16,976.59 1012.96,970.32
             995.99,955.56 976.33,960.07 957.00,965.58
             957.00,965.58 913.00,978.72 913.00,978.72
             913.00,978.72 837.00,1002.02 837.00,1002.02
             837.00,1002.02 790.00,1016.00 790.00,1016.00 Z" />
</svg>
